<?xml version="1.0" encoding="UTF-8"?>
<!--Generator: Apple Native CoreSVG 341-->
<!DOCTYPE svg
PUBLIC "-//W3C//DTD SVG 1.1//EN"
       "http://www.w3.org/Graphics/SVG/1.1/DTD/svg11.dtd">
<svg version="1.1" xmlns="http://www.w3.org/2000/svg" xmlns:xlink="http://www.w3.org/1999/xlink" viewBox="0 0 12.4922 11.959">
 <g>
  <rect height="11.959" opacity="0" width="12.4922" x="0" y="0"/>
  <path d="M11.9531 5.97656C11.9531 9.26953 9.27539 11.9531 5.97656 11.9531C2.68359 11.9531 0 9.26953 0 5.97656C0 2.67773 2.68359 0 5.97656 0C9.27539 0 11.9531 2.67773 11.9531 5.97656ZM5.32031 8.40234C5.32031 8.74805 5.625 9.0293 5.97656 9.0293C6.32812 9.0293 6.63281 8.75391 6.63281 8.40234C6.63281 8.05078 6.33398 7.76953 5.97656 7.76953C5.61914 7.76953 5.32031 8.05664 5.32031 8.40234ZM5.41992 3.39258L5.49609 6.58594C5.50195 6.89648 5.67188 7.06641 5.97656 7.06641C6.26953 7.06641 6.43945 6.90234 6.44531 6.58594L6.52734 3.39844C6.5332 3.08789 6.29297 2.85938 5.9707 2.85938C5.64258 2.85938 5.41406 3.08203 5.41992 3.39258Z" fill="currentColor" fill-opacity="0.85"/>
 </g>
</svg>
