<svg width="19" height="18" viewBox="0 0 19 18" fill="none" xmlns="http://www.w3.org/2000/svg">
<g clip-path="url(#clip0_200_113)">
<path d="M5.3125 17.998H12.6855C14.4043 17.998 15.7422 17.5 16.6211 16.6211C17.5293 15.7227 18.0078 14.3848 18.0078 12.6758V5.32227C18.0078 3.61328 17.5293 2.27539 16.6211 1.37695C15.7324 0.488281 14.4043 0 12.6855 0H5.3125C3.60352 0 2.25586 0.498047 1.37695 1.37695C0.478516 2.27539 0 3.61328 0 5.32227V12.6758C0 14.3848 0.46875 15.7227 1.37695 16.6211C2.26562 17.5098 3.60352 17.998 5.3125 17.998ZM5.3125 16.4258C4.10156 16.4258 3.1543 16.084 2.53906 15.4688C1.9043 14.8438 1.57227 13.9062 1.57227 12.6758V5.32227C1.57227 4.0918 1.9043 3.1543 2.53906 2.5293C3.14453 1.92383 4.10156 1.57227 5.3125 1.57227H12.6855C13.9062 1.57227 14.8438 1.91406 15.4688 2.5293C16.1035 3.1543 16.4355 4.0918 16.4355 5.32227V12.6758C16.4355 13.9062 16.1035 14.8438 15.4688 15.4688C14.8535 16.0742 13.9062 16.4258 12.6855 16.4258H5.3125Z" fill="black" fill-opacity="0.85"/>
<path d="M10.8691 6.23047L9.07227 7.91016L5.46875 11.5137C5.33203 11.6504 5.23438 11.8457 5.23438 12.041C5.23438 12.4805 5.51758 12.7637 5.95703 12.7637C6.19141 12.7637 6.36719 12.6758 6.50391 12.5391L10.1074 8.94531L11.7773 7.14844C12.5 6.38672 11.6016 5.54688 10.8691 6.23047ZM11.3574 8.96484V10.6543C11.3574 11.1133 11.6504 11.416 12.0801 11.416C12.5098 11.416 12.793 11.084 12.793 10.6348V6.02539C12.793 5.44922 12.4805 5.22461 11.9824 5.22461H7.34375C6.89453 5.22461 6.5918 5.50781 6.5918 5.9375C6.5918 6.36719 6.9043 6.65039 7.36328 6.65039H9.14062L11.6309 6.35742L11.3574 8.96484Z" 
fill="currentColor" 
fill-opacity="1"/>
</g>
<defs>
<clipPath id="clip0_200_113">
<rect width="18.3691" height="17.998" fill="white"/>
</clipPath>
</defs>
</svg>
